PathFileType	4	(X/Y/Z)	/Users/itak/Documents/Research/Walk-IL/dataset/trc/00144_00007.trc
DataRate	CameraRate	NumFrames	NumMarkers	Units	OrigDataRate	OrigDataStartFrame	OrigNumFrames
100.000000	100.000000	4	53	mm	100.000000	0	512
Frame#	Time	RPSI			LPSI			L3			STRN			T10			C7			CLAV			RBAK			LBAK			LSHO			LUPA			LAEL			LAOL			LWTS			LWPS			LFRA			LIFD			LHPS			LHTS			RSHO			RUPA			RAEL			RAOL			RWTS			RWPS			RFRA			RIFD			RHTS			RHPS			RBHD			LFHD			RFHD			LBHD			LHIP			RHIP			RASI			LASI			LKNE			LTHI			LANK			LTIP			LTOE			LMT1			LMT5			LHEE			RKNE			RTHI			RANK			RTIP			RTOE			RMT1			RMT5			RHEE			
		X1	Y1	Z1	X2	Y2	Z2	X3	Y3	Z3	X4	Y4	Z4	X5	Y5	Z5	X6	Y6	Z6	X7	Y7	Z7	X8	Y8	Z8	X9	Y9	Z9	X10	Y10	Z10	X11	Y11	Z11	X12	Y12	Z12	X13	Y13	Z13	X14	Y14	Z14	X15	Y15	Z15	X16	Y16	Z16	X17	Y17	Z17	X18	Y18	Z18	X19	Y19	Z19	X20	Y20	Z20	X21	Y21	Z21	X22	Y22	Z22	X23	Y23	Z23	X24	Y24	Z24	X25	Y25	Z25	X26	Y26	Z26	X27	Y27	Z27	X28	Y28	Z28	X29	Y29	Z29	X30	Y30	Z30	X31	Y31	Z31	X32	Y32	Z32	X33	Y33	Z33	X34	Y34	Z34	X35	Y35	Z35	X36	Y36	Z36	X37	Y37	Z37	X38	Y38	Z38	X39	Y39	Z39	X40	Y40	Z40	X41	Y41	Z41	X42	Y42	Z42	X43	Y43	Z43	X44	Y44	Z44	X45	Y45	Z45	X46	Y46	Z46	X47	Y47	Z47	X48	Y48	Z48	X49	Y49	Z49	X50	Y50	Z50	X51	Y51	Z51	X52	Y52	Z52	X53	Y53	Z53	

1	0	-817.0303344726562	1130.072021484375	1187.864501953125	-815.0585327148438	1130.796875	1053.042358398438	-823.485595703125	1160.920532226562	1117.80224609375	-617.1002197265625	1364.634765625	1120.786376953125	-869.5667114257812	1309.2509765625	1112.798095703125	-845.2183227539062	1601.45947265625	1099.561157226562	-659.158447265625	1497.845581054688	1115.740600585938	-897.064453125	1415.3466796875	1184.7666015625	-847.0302124023438	1581.658569335938	997.0004272460938	-756.8538818359375	1569.440795898438	932.4305419921875	-769.852783203125	1436.703857421875	862.1033935546875	-740.4639892578125	1216.801391601562	846.7116088867188	-812.0598754882812	1203.746948242188	897.1708374023438	-630.8587036132812	965.89892578125	909.2649536132812	-708.2427368164062	935.0022583007812	874.3447875976562	-716.9966430664062	1101.43798828125	848.5388793945312	-605.7147827148438	775.156005859375	935.1660766601562	-674.3935546875	861.2972412109375	880.10498046875	-610.4207153320312	879.2302856445312	903.089111328125	-796.73681640625	1583.399780273438	1282.807495117188	-814.2749633789062	1509.9931640625	1346.692504882812	-814.2271118164062	1215.02197265625	1365.700927734375	-821.0443725585938	1214.358032226562	1269.77978515625	-660.5401611328125	976.1903686523438	1347.495971679688	-734.1126708984375	957.5347900390625	1382.071899414062	-787.2134399414062	1141.81689453125	1381.717529296875	-626.8292846679688	783.22998046875	1332.37890625	-626.8986206054688	869.8115844726562	1352.292236328125	-692.2722778320312	858.712646484375	1382.911865234375	-808.3796997070312	1773.615478515625	1182.975952148438	-655.588623046875	1846.986083984375	1042.141845703125	-649.7784423828125	1852.78076171875	1172.308715820312	-821.4490356445312	1770.345581054688	1048.494262695312	-720.2382202148438	1040.109741210938	947.6187133789062	-689.1246948242188	1034.685180664062	1306.917602539062	-609.1494750976562	1108.942016601562	1255.323120117188	-613.3255004882812	1106.637939453125	988.3379516601562	-704.8910522460938	538.6923828125	977.2036743164062	-722.6514892578125	685.52099609375	949.4174194335938	-824.5422973632812	39.20481872558594	984.5472412109375	-809.5978393554688	294.340087890625	950.3457641601562	-592.2379760742188	39.27558135986328	1045.247802734375	-675.2667236328125	43.76433944702148	1078.586303710938	-697.3014526367188	38.95558929443359	961.6233520507812	-896.5575561523438	41.45957946777344	1043.005859375	-707.0103759765625	542.0615234375	1271.436645507812	-673.5667724609375	821.046875	1298.582641601562	-815.6365356445312	32.85272979736328	1249.31103515625	-737.276123046875	410.1581115722656	1281.47607421875	-582.7293090820312	47.14928436279297	1201.814331054688	-641.5319213867188	38.09380722045898	1158.860107421875	-681.9730834960938	42.40784454345703	1275.279663085938	-872.708251953125	33.97848510742188	1199.590209960938	
2	0.01	-817.0872192382812	1130.098999023438	1187.918579101562	-815.0911254882812	1130.817138671875	1053.082275390625	-823.5243530273438	1160.9482421875	1117.840209960938	-617.0664672851562	1364.646850585938	1120.875122070312	-869.5657348632812	1309.32470703125	1112.87548828125	-845.1104736328125	1601.5009765625	1099.66064453125	-659.07421875	1497.869873046875	1115.843383789062	-897.0213623046875	1415.390991210938	1184.851928710938	-846.918701171875	1581.735473632812	997.096923828125	-756.7153930664062	1569.515014648438	932.5289306640625	-769.779296875	1436.7744140625	862.1754150390625	-740.4984130859375	1216.8759765625	846.73974609375	-812.1105346679688	1203.85595703125	897.21142578125	-631.0678100585938	965.8887939453125	909.2874145507812	-708.4707641601562	935.0399169921875	874.3504028320312	-717.0997924804688	1101.4931640625	848.5628662109375	-606.0071411132812	775.1276245117188	935.1807861328125	-674.6649169921875	861.310302734375	880.1151123046875	-610.687744140625	879.1552734375	903.1201782226562	-796.648681640625	1583.435424804688	1282.89453125	-814.1993408203125	1510.04736328125	1346.792724609375	-814.2744750976562	1215.074462890625	1365.780395507812	-821.1194458007812	1214.456176757812	1269.927978515625	-660.6424560546875	976.2149047851562	1347.584838867188	-734.223388671875	957.56298828125	1382.159912109375	-787.2933959960938	1141.872802734375	1381.845947265625	-626.946533203125	783.2344970703125	1332.417114257812	-627.0155639648438	869.8467407226562	1352.32275390625	-692.3536376953125	858.7686157226562	1382.99169921875	-808.1705932617188	1773.642456054688	1183.109985351562	-655.55078125	1846.965209960938	1042.11474609375	-649.6201171875	1852.821411132812	1172.2587890625	-821.3914794921875	1770.308837890625	1048.621826171875	-720.3203125	1040.124633789062	947.652099609375	-689.2182006835938	1034.6796875	1306.9658203125	-609.1710205078125	1108.939697265625	1255.3671875	-613.3562622070312	1106.651977539062	988.3948974609375	-704.8817138671875	538.6964721679688	977.2233276367188	-722.6569213867188	685.522705078125	949.459228515625	-824.544921875	39.20623016357422	984.5466918945312	-809.5904541015625	294.338134765625	950.3706665039062	-592.239013671875	39.27577590942383	1045.248779296875	-675.27490234375	43.76310348510742	1078.590209960938	-697.3009033203125	38.95330810546875	961.6259155273438	-896.5616455078125	41.45549774169922	1043.00341796875	-707.0274047851562	542.0574340820312	1271.468139648438	-673.5960083007812	821.0648803710938	1298.616943359375	-815.6383666992188	32.84344482421875	1249.318481445312	-737.2846069335938	410.1503601074219	1281.512573242188	-582.7356567382812	47.15776443481445	1201.815307617188	-641.5333862304688	38.10166549682617	1158.859741210938	-681.9768676757812	42.40792846679688	1275.285522460938	-872.7127075195312	33.96803283691406	1199.589477539062	
3	0.02	-817.1561279296875	1130.12841796875	1187.98828125	-815.1370239257812	1130.843505859375	1053.139038085938	-823.5706787109375	1160.977905273438	1117.886962890625	-617.02099609375	1364.663818359375	1120.9814453125	-869.5673828125	1309.421752929688	1112.976196289062	-844.9691162109375	1601.560302734375	1099.786010742188	-658.9708862304688	1497.901000976562	1115.964721679688	-896.9629516601562	1415.451049804688	1184.962768554688	-846.7767944335938	1581.831909179688	997.2205810546875	-756.5444946289062	1569.60595703125	932.6475830078125	-769.687744140625	1436.86328125	862.2626953125	-740.5526733398438	1216.969116210938	846.7741088867188	-812.1807861328125	1203.995971679688	897.2664794921875	-631.3680419921875	965.8856201171875	909.3182373046875	-708.7608642578125	935.0823974609375	874.354736328125	-717.2447509765625	1101.561157226562	848.5881958007812	-606.395263671875	775.0897216796875	935.185546875	-675.0166625976562	861.3275756835938	880.1156005859375	-611.03466796875	879.0624389648438	903.1432495117188	-796.5294799804688	1583.484130859375	1283.001953125	-814.0966796875	1510.120239257812	1346.918579101562	-814.326171875	1215.144287109375	1365.883422851562	-821.2062377929688	1214.58251953125	1270.114379882812	-660.776611328125	976.2443237304688	1347.699462890625	-734.36279296875	957.5995483398438	1382.271240234375	-787.3860473632812	1141.945190429688	1382.0048828125	-627.1116333007812	783.2359619140625	1332.47314453125	-627.161376953125	869.8839111328125	1352.36181640625	-692.4734497070312	858.8355102539062	1383.09716796875	-807.912109375	1773.671875	1183.279418945312	-655.496826171875	1846.943237304688	1042.082763671875	-649.4150390625	1852.870849609375	1172.198974609375	-821.3153686523438	1770.265869140625	1048.78125	-720.4130859375	1040.141845703125	947.6973876953125	-689.3292236328125	1034.673095703125	1307.027954101562	-609.2028198242188	1108.937255859375	1255.42041015625	-613.3977661132812	1106.66943359375	988.468017578125	-704.86767578125	538.7009887695312	977.248046875	-722.6653442382812	685.5257568359375	949.5128173828125	-824.5467529296875	39.20803451538086	984.546875	-809.5783081054688	294.3379821777344	950.3997802734375	-592.2406005859375	39.27566909790039	1045.249633789062	-675.2825317382812	43.76133346557617	1078.593994140625	-697.3009033203125	38.95189666748047	961.6282348632812	-896.5645141601562	41.45237731933594	1043.002563476562	-707.0482788085938	542.0523681640625	1271.507446289062	-673.6607666015625	821.0807495117188	1298.66845703125	-815.6416015625	32.83277130126953	1249.328125	-737.2982788085938	410.1401977539062	1281.556884765625	-582.7443237304688	47.16640090942383	1201.817138671875	-641.5353393554688	38.11049270629883	1158.859497070312	-681.979736328125	42.40821838378906	1275.293212890625	-872.7178955078125	33.95669937133789	1199.589599609375	
4	0.03	-817.2324829101562	1130.1572265625	1188.071044921875	-815.1957397460938	1130.874755859375	1053.2119140625	-823.62158203125	1161.005981445312	1117.940673828125	-616.9647216796875	1364.685546875	1121.098876953125	-869.5732421875	1309.539916992188	1113.098388671875	-844.7979736328125	1601.63818359375	1099.931884765625	-658.8527221679688	1497.938232421875	1116.095703125	-896.8886108398438	1415.526733398438	1185.096435546875	-846.6100463867188	1581.943725585938	997.3670654296875	-756.3499755859375	1569.708740234375	932.7799682617188	-769.5829467773438	1436.966918945312	862.3604736328125	-740.62939453125	1217.07666015625	846.8128662109375	-812.270263671875	1204.161865234375	897.334716796875	-631.7648315429688	965.89208984375	909.3573608398438	-709.1028442382812	935.1256103515625	874.3552856445312	-717.4327392578125	1101.63818359375	848.6116943359375	-606.8724365234375	775.0411987304688	935.171630859375	-675.4409790039062	861.3487548828125	880.1004028320312	-611.4549560546875	878.9567260742188	903.1500854492188	-796.3793334960938	1583.545776367188	1283.125244140625	-813.9669189453125	1510.211059570312	1347.06494140625	-814.3758544921875	1215.229858398438	1366.007690429688	-821.2964477539062	1214.732055664062	1270.330200195312	-660.9389038085938	976.2765502929688	1347.835815429688	-734.5247192382812	957.6431884765625	1382.402099609375	-787.4832153320312	1142.031616210938	1382.185913085938	-627.3257446289062	783.232666015625	1332.548095703125	-627.3251953125	869.914794921875	1352.408935546875	-692.63525390625	858.9088745117188	1383.225952148438	-807.616943359375	1773.700073242188	1183.4765625	-655.426025390625	1846.92333984375	1042.048461914062	-649.1683349609375	1852.925903320312	1172.133178710938	-821.2218627929688	1770.220458984375	1048.965576171875	-720.5092163085938	1040.1611328125	947.7537841796875	-689.4514770507812	1034.665771484375	1307.102172851562	-609.2471923828125	1108.934326171875	1255.480834960938	-613.448974609375	1106.689697265625	988.5543212890625	-704.8486328125	538.7057495117188	977.2769165039062	-722.6773681640625	685.5306396484375	949.5764770507812	-824.54736328125	39.21006011962891	984.5484619140625	-809.5609741210938	294.3399963378906	950.4317016601562	-592.2423095703125	39.27531814575195	1045.250244140625	-675.2881469726562	43.75900650024414	1078.596923828125	-697.3016967773438	38.95161819458008	961.6302490234375	-896.5653686523438	41.45023727416992	1043.003784179688	-707.072265625	542.0468139648438	1271.552734375	-673.7678833007812	821.0909423828125	1298.738159179688	-815.6461181640625	32.82209396362305	1249.339477539062	-737.3181762695312	410.128173828125	1281.606811523438	-582.7544555664062	47.17390823364258	1201.81982421875	-641.5377807617188	38.11969375610352	1158.859375	-681.9808349609375	42.40894317626953	1275.302734375	-872.7235107421875	33.94592666625977	1199.590942382812	
